<svg width="15" height="15" viewBox="0 0 15 15" fill="none" xmlns="http://www.w3.org/2000/svg">
<path fill-rule="evenodd" clip-rule="evenodd" d="M7.59692 5.14307C8.8525 5.14307 9.87048 6.22364 9.87048 7.55675C9.87048 8.8897 8.8525 9.97043 7.59692 9.97043C6.34121 9.97043 5.32336 8.8897 5.32336 7.55675C5.32336 6.22364 6.34121 5.14307 7.59692 5.14307V5.14307Z" fill="#7D28F7"/>
<path fill-rule="evenodd" clip-rule="evenodd" d="M7.59689 0.315674C5.74454 0.315674 5.51207 0.324273 4.78454 0.359422C4.05844 0.394722 3.56281 0.516764 3.12914 0.695829C2.68054 0.880777 2.30001 1.12818 1.9209 1.53081C1.54151 1.93329 1.30847 2.33728 1.13369 2.81338C0.964601 3.27394 0.849504 3.80028 0.816822 4.57084C0.784283 5.34322 0.775757 5.59017 0.775757 7.55672C0.775757 9.52326 0.783998 9.76931 0.816964 10.5417C0.850357 11.3126 0.965312 11.8387 1.13384 12.2991C1.30819 12.7754 1.54122 13.1794 1.92048 13.5819C2.29944 13.9847 2.67997 14.2327 3.12828 14.4176C3.56224 14.5967 4.05801 14.7187 4.78398 14.754C5.5115 14.7892 5.74383 14.7978 7.59604 14.7978C9.44853 14.7978 9.68029 14.7892 10.4078 14.754C11.1339 14.7187 11.6301 14.5967 12.0641 14.4176C12.5125 14.2327 12.8925 13.9847 13.2715 13.5819C13.6509 13.1794 13.8839 12.7754 14.0587 12.2993C14.2263 11.8387 14.3414 11.3124 14.3755 10.5418C14.4082 9.76946 14.4167 9.52326 14.4167 7.55672C14.4167 5.59017 14.4082 5.34337 14.3755 4.57099C14.3414 3.80012 14.2263 3.27394 14.0587 2.81353C13.8839 2.33728 13.6509 1.93329 13.2715 1.53081C12.8921 1.12803 12.5127 0.880626 12.0637 0.695829C11.6288 0.516764 11.1329 0.394722 10.4068 0.359422C9.6793 0.324273 9.44768 0.315674 7.59476 0.315674L7.59689 0.315674Z" fill="white"/>
<path fill-rule="evenodd" clip-rule="evenodd" d="M6.98513 1.62058C7.10393 1.62039 7.23174 1.62045 7.36967 1.62051L7.59699 1.62058C9.41811 1.62058 9.63395 1.62752 10.3531 1.66222C11.0181 1.6945 11.379 1.81247 11.6195 1.91158C11.9378 2.04283 12.1647 2.19972 12.4033 2.45315C12.642 2.70659 12.7898 2.94796 12.9137 3.28587C13.007 3.54082 13.1183 3.92399 13.1486 4.62999C13.1812 5.39332 13.1884 5.62262 13.1884 7.55507C13.1884 9.48753 13.1812 9.71683 13.1486 10.4802C13.1182 11.1862 13.007 11.5693 12.9137 11.8243C12.7901 12.1622 12.642 12.4028 12.4033 12.6561C12.1645 12.9095 11.9379 13.0664 11.6195 13.1977C11.3793 13.2972 11.0181 13.4149 10.3531 13.4472C9.63409 13.4819 9.41811 13.4894 7.59699 13.4894C5.77574 13.4894 5.5599 13.4819 4.84089 13.4472C4.17588 13.4146 3.81495 13.2966 3.57438 13.1975C3.25609 13.0663 3.02873 12.9094 2.79001 12.6559C2.55129 12.4025 2.40351 12.1617 2.2796 11.8237C2.18624 11.5687 2.07498 11.1856 2.04471 10.4795C2.01203 9.71622 2.00549 9.48692 2.00549 7.55326C2.00549 5.6196 2.01203 5.39151 2.04471 4.62818C2.07512 3.92218 2.18624 3.53901 2.2796 3.28376C2.40322 2.94585 2.55129 2.70448 2.79001 2.45104C3.02873 2.19761 3.25609 2.04072 3.57438 1.90917C3.81481 1.80961 4.17588 1.69194 4.84089 1.65951C5.47009 1.62933 5.71393 1.62028 6.98513 1.61877V1.62058ZM11.2377 2.82296C10.7858 2.82296 10.4192 3.21172 10.4192 3.69159C10.4192 4.17131 10.7858 4.56052 11.2377 4.56052C11.6895 4.56052 12.0562 4.17131 12.0562 3.69159C12.0562 3.21187 11.6895 2.82266 11.2377 2.82266V2.82296ZM4.09436 7.55674C4.09436 5.5032 5.6626 3.83825 7.59688 3.83817C9.53123 3.83817 11.0991 5.50315 11.0991 7.55674C11.0991 9.61033 9.53138 11.2746 7.59702 11.2746C5.66267 11.2746 4.09436 9.61033 4.09436 7.55674Z" fill="#7D28F7"/>
</svg>
