<svg width="14" height="14" viewBox="0 0 14 14" fill="none" xmlns="http://www.w3.org/2000/svg">
<path fill-rule="evenodd" clip-rule="evenodd" d="M3.06958 4.45642H0.171509V13.701H3.06958V4.45642Z" fill="white"/>
<path fill-rule="evenodd" clip-rule="evenodd" d="M3.26038 1.59678C3.24157 0.690375 2.63102 0 1.63959 0C0.648163 0 0 0.690375 0 1.59678C0 2.48442 0.629005 3.19467 1.60197 3.19467H1.62049C2.63102 3.19467 3.26038 2.48442 3.26038 1.59678Z" fill="white"/>
<path fill-rule="evenodd" clip-rule="evenodd" d="M13.5215 8.40046C13.5215 5.56094 12.0917 4.23938 10.1846 4.23938C8.64589 4.23938 7.95698 5.13666 7.57233 5.76611V4.4567H4.67383C4.71203 5.32416 4.67383 13.7012 4.67383 13.7012H7.57233V8.53833C7.57233 8.26204 7.59114 7.98642 7.66777 7.78861C7.87722 7.23665 8.35413 6.66517 9.15481 6.66517C10.204 6.66517 10.6233 7.51287 10.6233 8.75516V13.701H13.5214L13.5215 8.40046Z" fill="white"/>
</svg>
