<svg width="13" height="11" viewBox="0 0 13 11" fill="none" xmlns="http://www.w3.org/2000/svg">
<path fill-rule="evenodd" clip-rule="evenodd" d="M6.0112 2.88932L6.03803 3.3591L5.59077 3.30158C3.96274 3.08107 2.54045 2.33324 1.33284 1.07728L0.742455 0.454086L0.590386 0.914287C0.268357 1.94015 0.474098 3.02354 1.14499 3.75219C1.5028 4.15487 1.42229 4.21239 0.805071 3.97271C0.590386 3.89601 0.402536 3.83848 0.384645 3.86724C0.322028 3.93435 0.536714 4.80682 0.706674 5.15197C0.93925 5.63135 1.41335 6.10113 1.93217 6.37917L2.37049 6.59968L1.85166 6.60927C1.35073 6.60927 1.33284 6.61886 1.38651 6.8202C1.56542 7.44339 2.27209 8.10493 3.05927 8.39255L3.61388 8.59389L3.13083 8.90069C2.41521 9.34171 1.57436 9.59099 0.733509 9.61017C0.330974 9.61975 0 9.6581 0 9.68687C0 9.78274 1.09132 10.3196 1.72643 10.5306C3.63177 11.1538 5.89491 10.8853 7.59451 9.82109C8.80211 9.06368 10.0097 7.55844 10.5733 6.10113C10.8774 5.32455 11.1815 3.90559 11.1815 3.22488C11.1815 2.78385 11.2084 2.72633 11.7093 2.19901C12.0045 1.89221 12.2818 1.55665 12.3355 1.46078C12.4249 1.27861 12.416 1.27861 11.9598 1.4416C11.1994 1.72923 11.0921 1.69088 11.4678 1.25944C11.7451 0.952637 12.0761 0.396561 12.0761 0.233573C12.0761 0.204811 11.9419 0.252749 11.7898 0.339036C11.6288 0.434911 11.271 0.578724 11.0026 0.665012L10.5196 0.828L10.0813 0.511612C9.83976 0.339036 9.49984 0.147286 9.32094 0.0897607C8.86473 -0.0444645 8.167 -0.0252895 7.75552 0.128111C6.63736 0.559549 5.93069 1.6717 6.0112 2.88932Z" fill="white"/>
</svg>
