<svg width="18" height="20" viewBox="0 0 18 20" fill="none" xmlns="http://www.w3.org/2000/svg">
<g clip-path="url(#clip0_810_560)">
<path d="M15.39 2.91101C13.68 1.15611 11.43 0.164795 9.03375 0.164795C2.15625 0.164795 -2.16225 8.07538 1.272 14.368L0 19.2744L4.75125 17.959C6.82125 19.1462 8.517 19.0411 9.03825 19.1112C17.013 19.1112 20.9827 8.86843 15.3787 2.94206L15.39 2.91101Z" fill="#ECEFF1"/>
<path d="M9.05041 17.4837L9.04591 17.4829H9.03391C6.64741 17.4829 5.12266 16.283 4.97266 16.2137L2.16016 16.99L2.91391 14.0877L2.73466 13.7891C1.99216 12.5343 1.59766 11.0891 1.59766 9.60095C1.59766 2.59966 9.65641 -0.901386 14.3199 4.04721C18.9722 8.94406 15.7059 17.4837 9.05041 17.4837Z" fill="#4AC959"/>
<path d="M13.1302 11.5565L13.1234 11.6162C12.8977 11.4968 11.7982 10.9259 11.5934 10.8471C11.1337 10.6663 11.2634 10.8184 10.3807 11.8917C10.2494 12.047 10.1189 12.059 9.89617 11.9515C9.67117 11.832 8.94892 11.5812 8.09392 10.7691C7.42792 10.136 6.98092 9.35972 6.84892 9.12085C6.62917 8.71795 7.08892 8.66062 7.50742 7.8198C7.58242 7.65259 7.54417 7.52121 7.48867 7.40257C7.43242 7.28314 6.98467 6.11267 6.79717 5.64608C6.61717 5.18108 6.43192 5.24 6.29317 5.24C5.86117 5.20019 5.54542 5.20656 5.26717 5.51391C4.05667 6.92643 4.36192 8.38353 5.39767 9.93301C7.43317 12.7612 8.51767 13.282 10.5007 14.005C11.0362 14.1857 11.5244 14.1602 11.9107 14.1013C12.3412 14.0288 13.2359 13.5272 13.4227 12.9659C13.6139 12.4045 13.6139 11.9387 13.5577 11.8312C13.5022 11.7237 13.3552 11.664 13.1302 11.5565Z" fill="#FAFAFA"/>
</g>
<defs>
<clipPath id="clip0_810_560">
<rect width="18" height="19.1096" fill="white" transform="translate(0 0.164795)"/>
</clipPath>
</defs>
</svg>
